<svg width="24" height="24" viewBox="0 0 24 24" fill="none" xmlns="http://www.w3.org/2000/svg">
<path d="M18.4 3.99978L14.3 4.79978L14.1 3.79978C14 3.39978 13.8 2.99978 13.4 2.79978C13 2.59978 12.6 2.49978 12.1 2.59978L8.7 3.29978C8.3 3.39978 7.9 3.59978 7.6 3.99978C7.4 4.39978 7.3 4.89978 7.4 5.29978L7.6 6.19978L3.4 6.99978C3.1 7.09978 3 7.29978 3 7.59978C3.1 7.79978 3.3 7.99978 3.5 7.99978H3.6L18.6 4.99978C18.9 4.89978 19 4.69978 19 4.39978C18.9 4.09978 18.7 3.99978 18.4 3.99978ZM8.5 4.59978C8.6 4.39978 8.7 4.29978 8.9 4.29978L12.3 3.59978C12.5 3.59978 12.6 3.59978 12.8 3.69978C12.9 3.79978 13.1 3.99978 13.1 4.09978L13.2 4.79978L8.5 5.79978L8.4 5.09978C8.4 4.89978 8.4 4.69978 8.5 4.59978Z" fill="#D73A21"/>
<path d="M10.5 16.7998V10.7998C10.5 10.4998 10.3 10.2998 10 10.2998C9.7 10.2998 9.5 10.4998 9.5 10.7998V16.7998C9.5 17.0998 9.7 17.2998 10 17.2998C10.3 17.2998 10.5 17.0998 10.5 16.7998Z" fill="#D73A21"/>
<path d="M14 16.7998V10.7998C14 10.4998 13.8 10.2998 13.5 10.2998C13.2 10.2998 13 10.4998 13 10.7998V16.7998C13 17.0998 13.2 17.2998 13.5 17.2998C13.8 17.2998 14 17.0998 14 16.7998Z" fill="#D73A21"/>
<path d="M18 6.69971H16C15.7 6.69971 15.5 6.89971 15.5 7.19971C15.5 7.49971 15.7 7.69971 16 7.69971H17.5L16.5 19.8997C16.5 20.2997 16.2 20.4997 15.8 20.4997H8C7.7 20.4997 7.4 20.1997 7.3 19.8997L6.5 9.89971C6.5 9.59971 6.2 9.39971 6 9.39971C5.7 9.39971 5.5 9.69971 5.5 9.89971L6.3 19.8997C6.4 20.7997 7.1 21.4997 8 21.4997H15.8C16.7 21.4997 17.4 20.7997 17.5 19.8997L18.6 7.19971C18.6 7.09971 18.6 6.89971 18.5 6.79971C18.4 6.69971 18.1 6.69971 18 6.69971Z" fill="#D73A21"/>
</svg>
